<svg id="wave" style="transform:rotate(180deg); transition: 0.3s" viewBox="0 0 1440 140" version="1.1" xmlns="http://www.w3.org/2000/svg"><defs><linearGradient id="sw-gradient-0" x1="0" x2="0" y1="1" y2="0"><stop stop-color="rgb(28, 27, 34)" offset="0%"></stop><stop stop-color="rgb(28, 27, 34)" offset="100%"></stop></linearGradient></defs><path style="transform:translate(0, 0px); opacity:1" fill="url(#sw-gradient-0)" d="M0,84L24,88.7C48,93,96,103,144,105C192,107,240,103,288,84C336,65,384,33,432,30.3C480,28,528,56,576,77C624,98,672,112,720,109.7C768,107,816,89,864,79.3C912,70,960,70,1008,60.7C1056,51,1104,33,1152,37.3C1200,42,1248,70,1296,74.7C1344,79,1392,61,1440,53.7C1488,47,1536,51,1584,49C1632,47,1680,37,1728,28C1776,19,1824,9,1872,18.7C1920,28,1968,56,2016,65.3C2064,75,2112,65,2160,67.7C2208,70,2256,84,2304,84C2352,84,2400,70,2448,67.7C2496,65,2544,75,2592,74.7C2640,75,2688,65,2736,63C2784,61,2832,65,2880,63C2928,61,2976,51,3024,58.3C3072,65,3120,89,3168,81.7C3216,75,3264,37,3312,30.3C3360,23,3408,47,3432,58.3L3456,70L3456,140L3432,140C3408,140,3360,140,3312,140C3264,140,3216,140,3168,140C3120,140,3072,140,3024,140C2976,140,2928,140,2880,140C2832,140,2784,140,2736,140C2688,140,2640,140,2592,140C2544,140,2496,140,2448,140C2400,140,2352,140,2304,140C2256,140,2208,140,2160,140C2112,140,2064,140,2016,140C1968,140,1920,140,1872,140C1824,140,1776,140,1728,140C1680,140,1632,140,1584,140C1536,140,1488,140,1440,140C1392,140,1344,140,1296,140C1248,140,1200,140,1152,140C1104,140,1056,140,1008,140C960,140,912,140,864,140C816,140,768,140,720,140C672,140,624,140,576,140C528,140,480,140,432,140C384,140,336,140,288,140C240,140,192,140,144,140C96,140,48,140,24,140L0,140Z"></path></svg>