<svg id="wave" style="transform:rotate(0deg); transition: 0.3s" viewBox="0 0 1440 140" version="1.1" xmlns="http://www.w3.org/2000/svg"><defs><linearGradient id="sw-gradient-0" x1="0" x2="0" y1="1" y2="0"><stop stop-color="#262626" offset="0%"></stop><stop stop-color="#262626" offset="100%"></stop></linearGradient></defs><path style="transform:translate(0, 0px); opacity:1" fill="url(#sw-gradient-0)" d="M0,14L24,14C48,14,96,14,144,32.7C192,51,240,89,288,95.7C336,103,384,79,432,77C480,75,528,93,576,84C624,75,672,37,720,32.7C768,28,816,56,864,58.3C912,61,960,37,1008,39.7C1056,42,1104,70,1152,88.7C1200,107,1248,117,1296,112C1344,107,1392,89,1440,70C1488,51,1536,33,1584,21C1632,9,1680,5,1728,18.7C1776,33,1824,65,1872,84C1920,103,1968,107,2016,102.7C2064,98,2112,84,2160,65.3C2208,47,2256,23,2304,25.7C2352,28,2400,56,2448,58.3C2496,61,2544,37,2592,25.7C2640,14,2688,14,2736,18.7C2784,23,2832,33,2880,35C2928,37,2976,33,3024,30.3C3072,28,3120,28,3168,32.7C3216,37,3264,47,3312,63C3360,79,3408,103,3432,114.3L3456,126L3456,140L3432,140C3408,140,3360,140,3312,140C3264,140,3216,140,3168,140C3120,140,3072,140,3024,140C2976,140,2928,140,2880,140C2832,140,2784,140,2736,140C2688,140,2640,140,2592,140C2544,140,2496,140,2448,140C2400,140,2352,140,2304,140C2256,140,2208,140,2160,140C2112,140,2064,140,2016,140C1968,140,1920,140,1872,140C1824,140,1776,140,1728,140C1680,140,1632,140,1584,140C1536,140,1488,140,1440,140C1392,140,1344,140,1296,140C1248,140,1200,140,1152,140C1104,140,1056,140,1008,140C960,140,912,140,864,140C816,140,768,140,720,140C672,140,624,140,576,140C528,140,480,140,432,140C384,140,336,140,288,140C240,140,192,140,144,140C96,140,48,140,24,140L0,140Z"></path></svg>